<svg width="22" height="22" viewBox="0 0 22 22" fill="none" xmlns="http://www.w3.org/2000/svg">
<path d="M11.5 4C11.5 3.72386 11.2761 3.5 11 3.5C10.7239 3.5 10.5 3.72386 10.5 4V7C10.5 7.27614 10.7239 7.5 11 7.5C11.2761 7.5 11.5 7.27614 11.5 7V4Z" fill="#2E2E2E"/>
<path fill-rule="evenodd" clip-rule="evenodd" d="M4 7C4 6.07116 4 5.60674 4.05133 5.21684C4.40579 2.52444 6.52444 0.405792 9.21684 0.0513308C9.60674 0 10.0712 0 11 0C11.9288 0 12.3933 0 12.7832 0.0513308C15.4756 0.405792 17.5942 2.52444 17.9487 5.21684C18 5.60674 18 6.07116 18 7V15C18 15.9288 18 16.3933 17.9487 16.7832C17.5942 19.4756 15.4756 21.5942 12.7832 21.9487C12.3933 22 11.9288 22 11 22C10.0712 22 9.60674 22 9.21684 21.9487C6.52444 21.5942 4.40579 19.4756 4.05133 16.7832C4 16.3933 4 15.9288 4 15V7ZM17 7V15C17 15.9606 16.9978 16.3441 16.9572 16.6526C16.6618 18.8963 14.8963 20.6618 12.6526 20.9572C12.3441 20.9978 11.9606 21 11 21C10.0394 21 9.6559 20.9978 9.34737 20.9572C7.1037 20.6618 5.33816 18.8963 5.04278 16.6526C5.00216 16.3441 5 15.9606 5 15V7C5 6.03937 5.00216 5.6559 5.04278 5.34737C5.33816 3.1037 7.1037 1.33816 9.34737 1.04278C9.6559 1.00216 10.0394 1 11 1C11.9606 1 12.3441 1.00216 12.6526 1.04278C14.8963 1.33816 16.6618 3.1037 16.9572 5.34737C16.9978 5.6559 17 6.03937 17 7Z" fill="#2E2E2E"/>
</svg>
