<svg width="49" height="58" viewBox="0 0 49 58" fill="none" xmlns="http://www.w3.org/2000/svg">
<path d="M44.8124 21.5834L10.2826 1.31354C9.29551 0.720201 8.17146 0.402952 7.02464 0.394043C5.22186 0.394043 3.49293 1.12169 2.21817 2.4169C0.943415 3.71212 0.227264 5.46881 0.227264 7.30052V50.8032C0.227494 52.0187 0.548192 53.212 1.15602 54.2589C1.76384 55.3059 2.63659 56.1683 3.68354 56.7565C4.73048 57.3447 5.91339 57.6372 7.10926 57.6036C8.30514 57.5699 9.47032 57.2115 10.4837 56.5654L45.0537 34.3747C46.1287 33.6912 47.011 32.7364 47.6147 31.6034C48.2184 30.4704 48.5229 29.1978 48.4986 27.9096C48.4743 26.6215 48.122 25.3617 47.476 24.253C46.83 23.1443 45.9123 22.2246 44.8124 21.5834Z" fill="white"/>
</svg>
