<svg width="142" height="48" viewBox="0 0 142 48" fill="none" xmlns="http://www.w3.org/2000/svg">
<path d="M3.35448 16.4743V28.7857H18.9029V31H1V0H18.6808V2.21429H3.35448V14.26H17.5702V16.4743H3.35448Z" fill="#2E2E2E"/>
<path d="M34.9047 15.0571L45.2555 31H42.5456L33.5719 17.1829L24.5983 31H21.844L32.1948 15.0571L22.4215 0H25.1313L33.5719 12.9757L41.9681 0H44.678L34.9047 15.0571Z" fill="#2E2E2E"/>
<path d="M70.588 13.95V0H72.9425V31H70.588V16.1643H52.5074V31H50.1529V0H52.5074V13.95H70.588Z" fill="#2E2E2E"/>
<path d="M104.063 31H101.575L98.5541 23.1171H82.9612L79.9404 31H77.4526L89.536 0H92.0237L104.063 31ZM90.7799 2.87857L83.8497 20.9029H97.71L90.7799 2.87857Z" fill="#2E2E2E"/>
<path d="M108.59 31V0H110.944V31H108.59Z" fill="#2E2E2E"/>
<path d="M141 31H138.29L130.827 18.29H121.009V31H118.655V0H130.916C133.433 0 135.595 0.900476 137.402 2.70143C139.208 4.50238 140.112 6.65762 140.112 9.16714C140.112 11.2338 139.46 13.0938 138.157 14.7471C136.883 16.371 135.254 17.4486 133.27 17.98L141 31ZM130.916 2.21429H121.009V16.0757H130.916C132.811 16.0757 134.425 15.4114 135.758 14.0829C137.091 12.7248 137.757 11.0862 137.757 9.16714C137.757 7.2481 137.091 5.60952 135.758 4.25143C134.425 2.89333 132.811 2.21429 130.916 2.21429Z" fill="#2E2E2E"/>
<path d="M94.968 40.392C95.5547 40.616 96.0187 40.9733 96.36 41.464C96.712 41.9547 96.888 42.5147 96.888 43.144C96.888 43.9867 96.5893 44.7067 95.992 45.304C95.3947 45.9013 94.6747 46.2 93.832 46.2H89V35H93.464C94.2747 35 94.968 35.288 95.544 35.864C96.12 36.44 96.408 37.1333 96.408 37.944C96.408 38.4773 96.28 38.9627 96.024 39.4C95.768 39.8267 95.416 40.1573 94.968 40.392ZM93.464 35.8H89.848V40.088H93.464C94.04 40.088 94.5307 39.88 94.936 39.464C95.352 39.0267 95.56 38.52 95.56 37.944C95.56 37.3573 95.352 36.856 94.936 36.44C94.5413 36.0133 94.0507 35.8 93.464 35.8ZM89.848 45.4H93.832C94.4293 45.4 94.9467 45.1813 95.384 44.744C95.8213 44.2853 96.04 43.752 96.04 43.144C96.04 42.5253 95.8213 41.9973 95.384 41.56C94.9573 41.112 94.44 40.888 93.832 40.888H89.848V45.4Z" fill="#2E2E2E"/>
<path d="M107.401 46.2H106.505L105.417 43.352H99.8007L98.7127 46.2H97.8167L102.169 35H103.065L107.401 46.2ZM102.617 36.04L100.121 42.552H105.113L102.617 36.04Z" fill="#2E2E2E"/>
<path d="M107.21 35H115.114V35.8H111.594V46.2H110.73V35.8H107.21V35Z" fill="#2E2E2E"/>
<path d="M116.715 42.456V35H117.563V42.456C117.563 43.4053 117.846 44.1627 118.411 44.728C118.987 45.2827 119.787 45.56 120.811 45.56C121.835 45.56 122.635 45.2827 123.211 44.728C123.787 44.1627 124.075 43.4053 124.075 42.456V35H124.923V42.456C124.923 43.6293 124.544 44.5787 123.787 45.304C123.04 46.0187 122.048 46.376 120.811 46.376C119.574 46.376 118.582 46.0187 117.835 45.304C117.088 44.5893 116.715 43.64 116.715 42.456Z" fill="#2E2E2E"/>
<path d="M136.603 35H137.675V46.2H136.827V36.248L132.683 43.128H132.539L128.395 36.248V46.2H127.547V35H128.603L132.603 41.624L136.603 35Z" fill="#2E2E2E"/>
<path d="M140.453 46.2V35H141.301V46.2H140.453Z" fill="#2E2E2E"/>
</svg>
